<svg id="Layer_1" data-name="Layer 1" xmlns="http://www.w3.org/2000/svg" viewBox="0 0 527.31 40.09"><defs><style>.cls-1{fill:#f2f2f2;}</style></defs><path class="cls-1" d="M150.53,311.65v3.62h26.73v9.46H150.53v3.62h26.73v11.14H136.05v-39h41.21v11.14Z" transform="translate(-56.35 -299.95)"/><path class="cls-1" d="M225.72,319.94c0,13.54-7.41,20.11-23.39,20.11s-23.39-6.52-23.39-20.11h14.48c0,4.18,1.5,7.86,8.91,7.86s8.91-3.73,8.91-7.86v-7.18H198.6V300.51h27.12Z" transform="translate(-56.35 -299.95)"/><path class="cls-1" d="M257.57,332.47H241l-2.67,7H222.38l16.15-39H260l16.14,39H260.25Zm-3.78-10-4.51-11.92-4.51,11.92Z" transform="translate(-56.35 -299.95)"/><path class="cls-1" d="M315.94,328.3l6.91,11.19H305.7l-5.4-9.13h-8.52v9.13H277.3v-39h30.63c8.85,0,14.92,6.24,14.92,14.92C322.85,321.11,320.23,325.79,315.94,328.3Zm-24.16-10.19h13.36c1.45,0,3.23,0,3.23-2.68s-1.78-2.67-3.23-2.67H291.78Z" transform="translate(-56.35 -299.95)"/><path class="cls-1" d="M344.05,315.43c0-8.68,6.07-14.92,14.92-14.92H389.6v39H375.12v-9.13H366.6l-5.4,9.13H344.05L351,328.3C346.66,325.79,344.05,321.11,344.05,315.43Zm31.07-2.67H361.75c-1.44,0-3.23,0-3.23,2.67s1.79,2.68,3.23,2.68h13.37Z" transform="translate(-56.35 -299.95)"/><path class="cls-1" d="M408.52,339.49H394v-39h14.48Z" transform="translate(-56.35 -299.95)"/><path class="cls-1" d="M424.67,325.74c0,1.89,1.78,3.17,11,3.17,8.57,0,9.85-.56,9.85-2,0-1.68-1.28-1.9-10.41-2.18-17.6-.55-24.34-3.45-24.34-12.53,0-8.57,8.41-12.25,23.78-12.25,15.21,0,23.78,3.68,23.78,13.65H443.82c0-2.06-3.34-2.51-10.41-2.51-6.79,0-8.19.33-8.19,1.84s1.4,1.45,9.86,1.78c15.37.61,24.89,1.67,24.89,11.86,0,10.75-8.91,13.48-24.89,13.48s-24.89-2.73-24.89-14.31Z" transform="translate(-56.35 -299.95)"/><path class="cls-1" d="M476.13,339.49H461.65v-39h14.48Z" transform="translate(-56.35 -299.95)"/><path class="cls-1" d="M478.36,300.51H499l17.93,15.26V300.51h14.48v39H516.89v-7.41l-6-4.95-12.47,12.36H478.36l22.44-20.6Z" transform="translate(-56.35 -299.95)"/><path class="cls-1" d="M534.65,319.94c0-13.53,7.35-20,24.5-20s24.5,6.52,24.5,20-7.4,20.11-24.5,20.11S534.65,333.53,534.65,319.94Zm34.53,0c0-4.06-1.45-7.74-10-7.74s-10,3.62-10,7.74,1.5,7.86,10,7.86S569.18,324.07,569.18,319.94Z" transform="translate(-56.35 -299.95)"/><polygon class="cls-1" points="40.02 27.35 53.03 39.29 32.98 39.29 20.5 26.92 19.1 28.08 14.49 31.87 14.49 39.29 0 39.29 0 0.3 14.49 0.3 14.49 15.56 19.1 11.63 32.41 0.3 53.03 0.3 30.58 18.68 39.57 26.93 40.02 27.35"/><polygon class="cls-1" points="64.55 27.35 77.55 39.28 57.6 39.28 44.62 27.35 44.17 26.91 44.16 26.92 35.17 18.68 57.6 0.3 77.55 0.3 55.1 18.68 64.09 26.92 64.11 26.91 64.55 27.35"/></svg>